<svg xmlns="http://www.w3.org/2000/svg" viewBox="0 0 420 420" role="img" aria-labelledby="title desc">
  <title id="title">Big Style School</title>
  <desc id="desc">Круглый знак Big Style School</desc>
  <defs>
    <radialGradient id="bg" cx="48%" cy="43%" r="62%">
      <stop offset="0" stop-color="#ef168d"/>
      <stop offset="0.58" stop-color="#bd006a"/>
      <stop offset="1" stop-color="#6f003e"/>
    </radialGradient>
    <path id="topArc" d="M65 210a145 145 0 0 1 290 0"/>
    <path id="bottomArc" d="M355 210a145 145 0 0 1-290 0"/>
    <filter id="shadow" x="-20%" y="-20%" width="140%" height="140%">
      <feDropShadow dx="0" dy="10" stdDeviation="12" flood-color="#380020" flood-opacity=".28"/>
    </filter>
  </defs>
  <circle cx="210" cy="210" r="190" fill="url(#bg)" filter="url(#shadow)"/>
  <circle cx="210" cy="210" r="174" fill="none" stroke="#fff" stroke-width="8"/>
  <circle cx="210" cy="210" r="126" fill="#c80070" stroke="#fff" stroke-width="8"/>
  <circle cx="210" cy="210" r="103" fill="none" stroke="#fff" stroke-width="5" stroke-dasharray="3 16" stroke-linecap="round"/>
  <text font-family="Arial Black, Arial, sans-serif" font-size="38" font-weight="900" fill="#fff" letter-spacing="6">
    <textPath href="#topArc" startOffset="50%" text-anchor="middle">ТЕАТР ТАНЦА</textPath>
  </text>
  <text font-family="Arial Black, Arial, sans-serif" font-size="31" font-weight="900" fill="#fff" letter-spacing="4">
    <textPath href="#bottomArc" startOffset="50%" text-anchor="middle">РОСТОВ-НА-ДОНУ</textPath>
  </text>
  <g fill="#fff">
    <path d="M283 82c14 22 8 54-15 78 22-10 41-7 53 9-34 16-58 42-72 78l-32-22c18-41 25-89 66-143Z"/>
    <path d="M251 74c8 34-2 71-28 113l-28-12c18-45 20-76 56-101Z"/>
    <path d="M316 114c6 29-6 57-37 82l-22-21c28-28 33-47 59-61Z"/>
  </g>
  <text x="210" y="217" text-anchor="middle" font-family="Arial Black, Arial, sans-serif" font-size="76" font-weight="900" fill="#fff" stroke="#6f003e" stroke-width="5" paint-order="stroke">big</text>
  <text x="210" y="279" text-anchor="middle" font-family="Arial Black, Arial, sans-serif" font-size="74" font-weight="900" fill="#fff" stroke="#6f003e" stroke-width="5" paint-order="stroke">style</text>
  <text x="210" y="316" text-anchor="middle" font-family="Arial, sans-serif" font-size="18" font-weight="900" fill="#fff">Est 1989</text>
</svg>
